<svg id="Bot_icon_inverse" data-name="Bot icon inverse" xmlns="http://www.w3.org/2000/svg" width="24.091" height="23.568" viewBox="0 0 24.091 23.568">
  <path id="Union_7" data-name="Union 7" d="M12.378,23.555q-.183.007-.368.007a10.146,10.146,0,0,1-.441-20.283V2.457a1.269,1.269,0,1,1,.887,0v.822a10.146,10.146,0,0,1,6.426,17.6l1.256,1.551c.435.547.215,1-.48,1.014l-7.3.122Zm10.611-5.982a.508.508,0,0,1-.482-.668,11.1,11.1,0,0,0,.239-6.18.508.508,0,0,1,.984-.247,12.111,12.111,0,0,1-.254,6.746.508.508,0,0,1-.483.349ZM.613,17.216A12.111,12.111,0,0,1,.36,10.481a.507.507,0,0,1,.983.243,11.084,11.084,0,0,0,.231,6.169.506.506,0,0,1-.067.459.507.507,0,0,1-.894-.136Z" fill="#fff"/>
  <g id="Group_28799" data-name="Group 28799" transform="translate(14973.999 -15877)">
    <g id="Group_28797" data-name="Group 28797">
      <path id="Path_76702" data-name="Path 76702" d="M89.655,66.64a2.4,2.4,0,1,1,2.4-2.4,2.4,2.4,0,0,1-2.4,2.4" transform="translate(-15047.6 15824.648)" fill="#b8d5ff"/>
      <path id="Path_76703" data-name="Path 76703" d="M94,67.09a1.491,1.491,0,1,0,1.491,1.491A1.491,1.491,0,0,0,94,67.09Z" transform="translate(-15051.946 15820.303)" fill="#214796"/>
      <circle id="Ellipse_84" data-name="Ellipse 84" cx="0.66" cy="0.66" r="0.66" transform="translate(-14957.785 15887.056)" fill="#fff"/>
    </g>
    <g id="Group_28798" data-name="Group 28798">
      <path id="Path_76704" data-name="Path 76704" d="M41.245,66.64a2.4,2.4,0,1,1,2.4-2.4,2.4,2.4,0,0,1-2.4,2.4" transform="translate(-15007.602 15824.648)" fill="#b8d5ff"/>
      <path id="Path_76705" data-name="Path 76705" d="M45.591,67.09a1.491,1.491,0,1,0,1.491,1.491A1.491,1.491,0,0,0,45.591,67.09Z" transform="translate(-15011.948 15820.303)" fill="#214796"/>
      <circle id="Ellipse_85" data-name="Ellipse 85" cx="0.66" cy="0.66" r="0.66" transform="translate(-14966.195 15887.056)" fill="#fff"/>
    </g>
    <path id="Path_76706" data-name="Path 76706" d="M61.669,110.253a3.425,3.425,0,0,1-3.38-2.872.473.473,0,0,1,.466-.551H64.6a.473.473,0,0,1,.464.551A3.463,3.463,0,0,1,61.669,110.253Z" transform="translate(-15023.666 15787.468)" fill="#214796"/>
  </g>
</svg>
