<svg xmlns="http://www.w3.org/2000/svg" viewBox="0 0 32 32"><defs><style>.cls-1{fill:#4fa6a9;}.cls-2{fill:#fff;}</style></defs><g id="Layer_2" data-name="Layer 2"><g id="Layer_1-2" data-name="Layer 1"><g id="Group_2042" data-name="Group 2042"><circle id="Ellipse_135" data-name="Ellipse 135" class="cls-1" cx="16" cy="16" r="16"/><g id="Group_2041" data-name="Group 2041"><path id="Path_2683" data-name="Path 2683" class="cls-2" d="M18,22.13v4.12H13.83V23.2a1.05,1.05,0,0,1,.3-.75,1,1,0,0,1,.76-.32Z"/><path id="Path_2685" data-name="Path 2685" class="cls-2" d="M22.16,18H19.08A1,1,0,0,0,18,19v3.11h0v4.12a1.1,1.1,0,0,0,.64-.28L22,22.7a.83.83,0,0,0,.21-.56Z"/><path id="Path_2686" data-name="Path 2686" class="cls-2" d="M22.16,13.86h4.17V18H23.25a1.07,1.07,0,0,1-.76-.3,1,1,0,0,1-.33-.75V13.86Z"/><path id="Path_2688" data-name="Path 2688" class="cls-2" d="M18,9.73v.88h0v2.17a1,1,0,0,0,.3.75,1,1,0,0,0,.75.33h7.28a1.12,1.12,0,0,0-.3-.64L22.75,9.94a.82.82,0,0,0-.58-.2Z"/><path id="Path_2689" data-name="Path 2689" class="cls-2" d="M13.86,9.73V5.6H18V8.66a1.06,1.06,0,0,1-.29.76,1.09,1.09,0,0,1-.76.32H13.86Z"/><path id="Path_2690" data-name="Path 2690" class="cls-2" d="M12.12,5.6h0Z"/><path id="Path_2691" data-name="Path 2691" class="cls-2" d="M9.69,13.86h3.09a1.09,1.09,0,0,0,.76-.3,1.05,1.05,0,0,0,.32-.75V9.73h0V5.6a1,1,0,0,0-.64.29L9.9,9.15a.91.91,0,0,0-.21.57Z"/><path id="Path_2692" data-name="Path 2692" class="cls-2" d="M9.69,18H5.53V13.87H8.61a1.06,1.06,0,0,1,.76.29,1,1,0,0,1,.32.76V18Z"/><path id="Path_2694" data-name="Path 2694" class="cls-2" d="M13.86,22.12v-.87h0V19.07a1.09,1.09,0,0,0-.3-.76A1.07,1.07,0,0,0,12.8,18H5.53a1.08,1.08,0,0,0,.29.64l3.3,3.29a.86.86,0,0,0,.57.21Z"/></g></g></g></g></svg>