<svg xmlns="http://www.w3.org/2000/svg" viewBox="0 0 32 32"><defs><style>.cls-1{fill:#dc4845;}.cls-2{fill:#fff;}</style></defs><g id="Layer_2" data-name="Layer 2"><g id="Layer_1-2" data-name="Layer 1"><g id="ic_jionews" data-name="ic jionews"><path id="Rectangle_9864" data-name="Rectangle 9864" class="cls-1" d="M16,0h0A16,16,0,0,1,32,16h0A16,16,0,0,1,16,32h0A16,16,0,0,1,0,16H0A16,16,0,0,1,16,0Z"/><g id="Group_137296" data-name="Group 137296"><g id="Group_131877" data-name="Group 131877"><rect id="Rectangle_51" data-name="Rectangle 51" class="cls-2" x="6.98" y="9.31" width="9.3" height="2.36" rx="0.67"/><rect id="Rectangle_52" data-name="Rectangle 52" class="cls-2" x="6.98" y="13.04" width="9.3" height="2.36" rx="0.67"/><rect id="Rectangle_53" data-name="Rectangle 53" class="cls-2" x="6.98" y="16.78" width="9.3" height="2.36" rx="0.67"/><rect id="Rectangle_54" data-name="Rectangle 54" class="cls-2" x="6.98" y="20.52" width="9.3" height="2.36" rx="0.67"/></g><path id="Path_64470" data-name="Path 64470" class="cls-2" d="M24.44,14.89l-6.15-3.55a.82.82,0,0,0-.83,0,.84.84,0,0,0-.42.73v7.1a.84.84,0,0,0,.42.73.87.87,0,0,0,.83,0l6.16-3.56a.84.84,0,0,0,.41-.72.83.83,0,0,0-.41-.72Z"/></g></g></g></g></svg>